<svg width="88" height="19" viewBox="0 0 88 19" fill="none" xmlns="http://www.w3.org/2000/svg">
<path fill-rule="evenodd" clip-rule="evenodd" d="M47.399 13.6393C45.5077 13.6393 44.1236 12.7039 43.9643 11.2792L41.7634 11.2791C41.9024 13.8777 44.0535 15.5215 47.2396 15.5215C50.6449 15.5215 52.7859 13.8381 52.7859 11.1503C52.7859 9.04885 51.5612 7.86477 48.6135 7.16767L47.0306 6.77901C45.1789 6.32148 44.4219 5.72381 44.4219 4.7081C44.4219 3.43367 45.6071 2.55805 47.3391 2.55805C49.0711 2.55805 50.2563 3.42348 50.3862 4.85723H52.5566C52.4865 2.3784 50.4054 0.675766 47.3696 0.675766C44.3021 0.675766 42.1419 2.3784 42.1419 4.85723C42.1419 6.85927 43.3667 8.09303 46.0048 8.73025L47.8667 9.17879C49.7287 9.63638 50.515 10.3041 50.515 11.4192C50.515 12.7038 49.2112 13.6393 47.399 13.6393ZM9.94097 11.3989H4.46473L3.14962 15.2821H0.830109L6.01711 0.915323H8.427L13.614 15.2821H11.2549L9.94097 11.3989ZM5.0319 9.60704H9.37272L7.23284 3.30491H7.17296L5.0319 9.60704ZM20.4449 15.3917C23.074 15.3917 24.8162 13.3004 24.8162 10.0454C24.8162 6.79944 23.0638 4.69798 20.4053 4.69797C19.0374 4.65386 17.756 5.36533 17.0701 6.54975H17.0306V4.80757H14.9494V18.7473H17.0995V13.5591H17.1492C17.8059 14.751 19.0859 15.4628 20.4449 15.3917ZM22.6062 10.0454C22.6062 7.92475 21.5103 6.53054 19.8382 6.53054C18.1954 6.53054 17.0905 7.95411 17.0905 10.0454C17.0905 12.1559 18.1954 13.5693 19.8382 13.5693C21.5103 13.5693 22.6062 12.1853 22.6062 10.0454ZM31.9736 15.3917C34.6026 15.3917 36.3448 13.3004 36.3448 10.0454C36.3448 6.79944 34.5925 4.69799 31.934 4.69799C30.566 4.65387 29.2846 5.36534 28.5987 6.54975H28.5592V4.80757H26.4781V18.7473H28.6281V13.5591H28.6779C29.3345 14.751 30.6146 15.4628 31.9736 15.3917ZM34.1349 10.0454C34.1349 7.92475 33.039 6.53054 31.3668 6.53054C29.7241 6.53054 28.6191 7.95411 28.6191 10.0454C28.6191 12.1559 29.7241 13.5693 31.3668 13.5693C33.039 13.5693 34.1349 12.1853 34.1349 10.0454ZM57.4261 2.32874V4.80757H59.418V6.51021H57.4261V12.2847C57.4261 13.1818 57.8249 13.5998 58.7005 13.5998C58.937 13.5957 59.1731 13.5791 59.4078 13.5501V15.2425C59.0141 15.3161 58.614 15.3494 58.2136 15.342C56.0929 15.342 55.2659 14.5454 55.2659 12.514V6.51021H53.7429V4.80757H55.2659V2.32874H57.4261ZM65.5394 4.67878C62.5126 4.67878 60.5716 6.74974 60.5716 10.0454C60.5716 13.3501 62.4933 15.4121 65.5394 15.4121C68.5865 15.4121 70.5083 13.3501 70.5083 10.0454C70.5083 6.7497 68.5763 4.67878 65.5394 4.67878ZM68.3176 10.0454C68.3176 7.78466 67.2816 6.45034 65.5394 6.45034C63.7972 6.45034 62.7623 7.79482 62.7623 10.0454C62.7623 12.3152 63.7972 13.6394 65.5394 13.6394C67.2816 13.6394 68.3176 12.3152 68.3176 10.0454ZM74.3316 4.80757H72.281L72.281 15.2821H74.431V9.06923C74.3594 8.44068 74.5661 7.81224 74.9969 7.34892C75.4276 6.8856 76.0393 6.63369 76.6714 6.65933C76.9984 6.64979 77.3247 6.69367 77.6375 6.78926V4.77818C77.3957 4.724 77.1486 4.69709 76.9008 4.69796C75.7189 4.65283 74.6673 5.44271 74.3813 6.5904H74.3316V4.80757ZM87.5505 12.2056C87.2612 14.1071 85.4095 15.412 83.0402 15.412C79.9931 15.412 78.1018 13.3705 78.1018 10.0951C78.1018 6.80961 80.0033 4.67877 82.9498 4.67877C85.8478 4.67877 87.6702 6.6695 87.6702 9.84543V10.5821H80.2722V10.712C80.2031 11.4918 80.4724 12.2637 81.0115 12.8314C81.5506 13.399 82.3076 13.7077 83.09 13.6789C84.1333 13.7767 85.117 13.1775 85.5089 12.2056L87.5505 12.2056ZM85.519 9.07941H80.2823C80.2805 8.37222 80.5612 7.6936 81.0622 7.19438C81.5631 6.69517 82.2426 6.41673 82.9498 6.42095C83.6515 6.40587 84.3276 6.68418 84.8153 7.18883C85.303 7.69347 85.5581 8.3787 85.519 9.07941Z" fill="white"/>
</svg>
