<svg width="139" height="47" viewBox="0 0 139 47" fill="none" xmlns="http://www.w3.org/2000/svg">
<path d="M127.419 0.000150401H11.031C10.6068 0.000150401 10.1876 0.000150401 9.76447 0.00246427C9.41027 0.00477814 9.0589 0.0114999 8.7013 0.0171573C7.92444 0.0262992 7.1494 0.0946445 6.38292 0.221599C5.61752 0.351318 4.8761 0.595874 4.18373 0.946997C3.49221 1.30109 2.86034 1.7612 2.31106 2.31063C1.75889 2.85852 1.29862 3.4918 0.947934 4.18612C0.596284 4.87907 0.352449 5.62162 0.22485 6.38814C0.0960382 7.15369 0.0267233 7.92807 0.0175276 8.70432C0.0067912 9.05904 0.00565741 9.41494 0 9.7697V36.5114C0.00565741 36.8706 0.0067912 37.2186 0.0175276 37.578C0.0267261 38.3542 0.096041 39.1285 0.22485 39.894C0.352097 40.661 0.595946 41.404 0.947934 42.0972C1.29846 42.7893 1.7588 43.42 2.31106 43.9648C2.85826 44.5167 3.49053 44.9771 4.18373 45.3285C4.87609 45.6806 5.61744 45.9266 6.38292 46.0583C7.14953 46.1842 7.92449 46.2526 8.7013 46.2628C9.0589 46.2707 9.41027 46.2752 9.76447 46.2752C10.1876 46.2775 10.6068 46.2775 11.031 46.2775H127.419C127.834 46.2775 128.257 46.2775 128.673 46.2752C129.025 46.2752 129.387 46.2707 129.739 46.2628C130.515 46.2531 131.288 46.1848 132.053 46.0583C132.821 45.9256 133.565 45.6797 134.261 45.3285C134.953 44.9769 135.585 44.5165 136.132 43.9648C136.683 43.4178 137.144 42.7876 137.499 42.0972C137.848 41.4035 138.09 40.6605 138.215 39.894C138.344 39.1284 138.416 38.3542 138.43 37.578C138.434 37.2186 138.434 36.8706 138.434 36.5114C138.443 36.0911 138.443 35.6731 138.443 35.2459V11.0328C138.443 10.6091 138.443 10.1889 138.434 9.7697C138.434 9.41494 138.434 9.05904 138.43 8.70428C138.416 7.92795 138.344 7.15375 138.215 6.38809C138.089 5.62202 137.848 4.87952 137.499 4.18608C136.785 2.79437 135.652 1.66154 134.261 0.946893C133.565 0.596628 132.821 0.352137 132.053 0.221495C131.288 0.093981 130.515 0.0256119 129.739 0.0169954C129.387 0.0113495 129.025 0.00456989 128.673 0.00231387C128.257 0 127.834 0 127.419 0V0.000150401Z" fill="#A6A6A6"/>
</svg>
