<svg width="137" height="45" viewBox="0 0 137 45" fill="none" xmlns="http://www.w3.org/2000/svg">
<path d="M8.77008 44.2652C8.41758 44.2652 8.0736 44.2607 7.72387 44.2528C6.99938 44.2434 6.27658 44.1803 5.5614 44.0641C4.89453 43.9493 4.24852 43.7356 3.64466 43.4303C3.04634 43.1274 2.50063 42.7303 2.02842 42.2541C1.54938 41.7836 1.15056 41.2378 0.847762 40.6385C0.541624 40.0352 0.329759 39.3886 0.219546 38.7212C0.100526 38.004 0.036131 37.2789 0.0269168 36.5519C0.0195818 36.3079 0.00997925 35.4955 0.00997925 35.4955V8.7697C0.00997925 8.7697 0.0202065 7.96979 0.0269746 7.73478C0.0357972 7.00901 0.0998177 6.28497 0.218482 5.56892C0.328898 4.89965 0.540927 4.25119 0.847229 3.64598C1.14892 3.04705 1.54553 2.50088 2.02168 2.02864C2.4973 1.55192 3.04476 1.15275 3.64409 0.84571C4.24656 0.541301 4.89136 0.329165 5.55688 0.216407C6.27441 0.0990546 6.99971 0.0356082 7.72672 0.0266002L8.77064 0.0124741H127.667L128.723 0.0271671C129.444 0.0357275 130.163 0.0986078 130.874 0.215273C131.546 0.329445 132.197 0.543062 132.807 0.8491C134.007 1.46788 134.984 2.44685 135.601 3.6488C135.902 4.24984 136.111 4.89301 136.22 5.55649C136.34 6.27842 136.407 7.00815 136.421 7.73987C136.424 8.06751 136.424 8.41945 136.424 8.7697C136.433 9.20355 136.433 9.6165 136.433 10.0328V34.2459C136.433 34.6662 136.433 35.0764 136.424 35.4899C136.424 35.8661 136.424 36.2108 136.42 36.5655C136.406 37.2841 136.34 38.0008 136.222 38.7098C136.114 39.3821 135.903 40.0337 135.597 40.6419C135.292 41.2348 134.896 41.7758 134.422 42.2451C133.95 42.7238 133.403 43.1233 132.803 43.4281C132.196 43.7358 131.545 43.9502 130.874 44.0641C130.158 44.1809 129.436 44.244 128.711 44.2528C128.372 44.2607 128.017 44.2652 127.673 44.2652L126.419 44.2675L8.77008 44.2652Z" fill="black"/>
</svg>
