<svg width="157" height="47" viewBox="0 0 157 47" fill="none" xmlns="http://www.w3.org/2000/svg">
<path fill-rule="evenodd" clip-rule="evenodd" d="M6.59854 0H151.215C154.41 0 157 2.58989 157 5.78467V40.4927C157 43.6875 154.41 46.2774 151.215 46.2774H6.59854C3.40376 46.2774 0.813873 43.6875 0.813873 40.4927V5.78467C0.813873 2.58989 3.40376 0 6.59854 0ZM156.074 5.78468C156.074 3.10105 153.899 0.925551 151.215 0.925551H6.59853C3.91491 0.925551 1.7394 3.10105 1.7394 5.78468V40.4927C1.7394 43.1763 3.91491 45.3518 6.59853 45.3518H151.215C153.899 45.3518 156.074 43.1763 156.074 40.4927V5.78468Z" fill="#A6A6A6"/>
</svg>
