<svg width="512" height="305" viewBox="0 0 512 305" fill="none" xmlns="http://www.w3.org/2000/svg">
<path d="M447.218 149.816C447.228 149.804 447.243 149.79 447.252 149.779C447.32 149.693 447.357 149.601 447.379 149.506C447.383 149.492 447.383 149.48 447.383 149.469C447.411 149.264 447.325 149.056 447.13 148.875C447.058 148.811 446.981 148.744 446.885 148.688L446.519 148.477L499.712 119.427C511.875 112.405 511.884 108.377 511.462 99.5792C511.267 95.4845 511.746 87.9976 499.712 81.0506L375.352 9.25751C363.334 2.31935 352.352 0.726647 345.259 0.614448C330.029 0.370828 321.065 3.89142 308.901 10.9132L293.735 19.6685L293.273 19.4015C293.202 19.3604 293.111 19.3365 293.031 19.3068L293.045 19.2983C293.015 19.2865 292.985 19.2862 292.955 19.2744C292.894 19.2565 292.834 19.2443 292.769 19.2292C292.693 19.2141 292.613 19.2075 292.533 19.2009C292.473 19.1945 292.408 19.191 292.348 19.1904C292.253 19.1923 292.169 19.2059 292.079 19.2165C292.034 19.2247 291.98 19.227 291.935 19.241C291.801 19.2713 291.673 19.3161 291.565 19.3784L279.304 26.4569C279.196 26.5192 279.118 26.5933 279.065 26.6706C279.041 26.6963 279.042 26.7252 279.023 26.7538C279 26.8025 278.981 26.8542 278.978 26.909C278.979 26.9436 278.98 26.9782 278.996 27.0158C279.007 27.062 279.019 27.1025 279.045 27.1518C279.066 27.1866 279.092 27.2243 279.123 27.2592C279.139 27.2738 279.144 27.294 279.165 27.3115L279.18 27.303C279.231 27.3496 279.272 27.4019 279.344 27.443L279.806 27.71L267.731 34.6808L267.269 34.4138C267.198 34.3727 267.107 34.3487 267.026 34.3191L267.041 34.3106C267.011 34.2988 266.981 34.2985 266.95 34.2866C266.89 34.2687 266.83 34.2566 266.764 34.2415C266.689 34.2263 266.609 34.2198 266.529 34.2132C266.464 34.2096 266.404 34.2033 266.344 34.2027C266.249 34.2046 266.164 34.2181 266.075 34.2288C266.03 34.237 265.975 34.2393 265.931 34.2533C265.797 34.2836 265.669 34.3284 265.561 34.3907L240.866 48.6467C240.758 48.709 240.686 48.7804 240.628 48.8605C240.604 48.8862 240.605 48.915 240.586 48.9436C240.557 48.9952 240.539 49.0469 240.541 49.0988C240.537 49.1363 240.543 49.168 240.559 49.2056C240.565 49.2547 240.581 49.2923 240.608 49.3416C240.624 49.3792 240.655 49.4141 240.686 49.449C240.697 49.4664 240.707 49.4838 240.722 49.4984L240.737 49.4899C240.789 49.5365 240.83 49.5888 240.901 49.6299L241.364 49.8969L234.387 53.9247L233.929 53.6607C233.858 53.6196 233.768 53.5956 233.687 53.566L233.701 53.5575C233.671 53.5456 233.641 53.5453 233.611 53.5335C233.55 53.5156 233.49 53.5035 233.425 53.4884C233.349 53.4732 233.269 53.4666 233.189 53.4601C233.124 53.4565 233.064 53.4502 233.004 53.4495C232.909 53.4515 232.825 53.465 232.735 53.4756C232.691 53.4838 232.636 53.4862 232.591 53.5001C232.457 53.5305 232.329 53.5753 232.221 53.6376L207.527 67.8936C207.419 67.9559 207.346 68.0272 207.289 68.1074C207.265 68.133 207.265 68.1619 207.246 68.1905C207.218 68.2421 207.2 68.2938 207.201 68.3457C207.197 68.3831 207.203 68.4149 207.219 68.4525C207.226 68.5016 207.242 68.5392 207.268 68.5885C207.285 68.6261 207.316 68.661 207.347 68.6959C207.357 68.7133 207.368 68.7307 207.383 68.7453L207.398 68.7368C207.449 68.7834 207.491 68.8357 207.562 68.8768L208.024 69.1438L12.9429 181.764C0.779772 188.786 0.672574 196.828 1.08967 205.623C1.28403 209.718 3.23822 217.393 15.2667 224.337L134.445 291.919C146.473 298.863 160.156 304.747 167.244 304.862C182.484 305.106 192.513 298.938 204.671 291.919L404.985 172.454L405.351 172.665C405.448 172.721 405.559 172.768 405.67 172.81C405.983 172.923 406.349 172.97 406.698 172.956C406.718 172.956 406.743 172.953 406.763 172.954C406.922 172.944 407.087 172.919 407.235 172.881C407.26 172.872 407.28 172.867 407.299 172.861C407.453 172.819 407.596 172.766 407.724 172.692L446.926 150.061C447.049 149.99 447.146 149.904 447.218 149.816Z" fill="#EEEDEA"/>
</svg>
