<svg width="224" height="231" viewBox="0 0 224 231" fill="none" xmlns="http://www.w3.org/2000/svg">
<path d="M223.922 104.299C223.917 104.281 223.911 104.258 223.905 104.24C223.857 104.109 223.785 103.989 223.702 103.876C223.69 103.858 223.678 103.846 223.666 103.834C223.475 103.602 223.213 103.435 222.915 103.363C222.807 103.339 222.694 103.315 222.581 103.315L222.151 103.315L222.151 42.1301C222.151 27.3452 220.469 18.1963 211.279 9.1906C207.003 4.99787 198.951 -4.34822e-06 184.829 -4.03956e-06L38.879 -8.49727e-07C24.7743 -5.41458e-07 16.711 4.99788 12.4348 9.19061C3.25035 18.1904 1.56852 27.3452 1.56852 42.1301L1.56852 60.565L1.0258 60.565C0.942305 60.565 0.864774 60.5948 0.787243 60.6127L0.787243 60.5948C0.757423 60.6008 0.739531 60.6187 0.709711 60.6246C0.656036 60.6425 0.608324 60.6664 0.554649 60.6902C0.495009 60.72 0.441334 60.7618 0.387658 60.8035C0.34591 60.8334 0.304163 60.8691 0.268379 60.9049C0.214704 60.9646 0.17892 61.0302 0.137172 61.0958C0.11928 61.1316 0.0894606 61.1673 0.0775327 61.2091C0.0298211 61.3224 1.34298e-06 61.4477 1.34585e-06 61.5789L1.67159e-06 76.483C1.67446e-06 76.6143 0.0298214 76.7395 0.077533 76.8528C0.0894609 76.8946 0.119281 76.9244 0.137173 76.9661C0.172956 77.0317 0.214704 77.0973 0.268379 77.157C0.304163 77.1928 0.339947 77.2285 0.387658 77.2584C0.441334 77.3001 0.489046 77.3359 0.554649 77.3717C0.602361 77.3955 0.656036 77.4194 0.709712 77.4373C0.733567 77.4432 0.757423 77.4611 0.787243 77.4671L0.787243 77.4492C0.864774 77.4671 0.942306 77.4969 1.0258 77.4969L1.56852 77.4969L1.56852 92.1745L1.0258 92.1745C0.942306 92.1745 0.864775 92.2043 0.787243 92.2222L0.787243 92.2043C0.757424 92.2103 0.739532 92.2281 0.709712 92.2341C0.656036 92.252 0.608325 92.2758 0.554649 92.2997C0.49501 92.3295 0.441334 92.3713 0.387659 92.413C0.345911 92.4488 0.304163 92.4786 0.26838 92.5144C0.214704 92.5741 0.178921 92.6397 0.137173 92.7053C0.119281 92.7411 0.0894613 92.7768 0.0775334 92.8186C0.0298218 92.9319 2.03383e-06 93.0571 2.0367e-06 93.1884L2.69274e-06 123.205C2.69561e-06 123.337 0.0298224 123.456 0.0775341 123.575C0.0894619 123.617 0.119282 123.647 0.137174 123.689C0.172957 123.76 0.214705 123.826 0.26838 123.879C0.304164 123.921 0.339948 123.951 0.387659 123.981C0.441335 124.028 0.489047 124.058 0.55465 124.094C0.602362 124.124 0.656037 124.142 0.709713 124.16C0.733569 124.172 0.757424 124.184 0.78128 124.19L0.78128 124.172C0.858811 124.19 0.936343 124.219 1.01984 124.219L1.56256 124.219L1.56256 132.7L1.0258 132.7C0.942307 132.7 0.864776 132.73 0.787244 132.748L0.787244 132.73C0.757425 132.736 0.739533 132.754 0.709713 132.76C0.656037 132.778 0.608326 132.802 0.55465 132.825C0.495011 132.855 0.441335 132.897 0.38766 132.939C0.345912 132.975 0.304164 133.004 0.268381 133.04C0.214705 133.1 0.178921 133.165 0.137174 133.231C0.119282 133.267 0.0894622 133.303 0.0775343 133.344C0.0298227 133.458 2.91955e-06 133.583 2.92241e-06 133.714L3.57846e-06 163.731C3.58133e-06 163.862 0.0298233 163.982 0.0775349 164.101C0.0894628 164.143 0.119283 164.173 0.137174 164.214C0.172958 164.286 0.214706 164.351 0.268381 164.405C0.304165 164.447 0.339949 164.477 0.38766 164.507C0.441336 164.554 0.489048 164.584 0.554651 164.62C0.602363 164.65 0.656038 164.668 0.709714 164.685C0.733569 164.697 0.757425 164.709 0.781281 164.715L0.781281 164.697C0.858812 164.715 0.936344 164.745 1.01984 164.745L1.56256 164.745L1.56256 401.876C1.56256 416.661 3.2444 425.81 12.4289 434.815C16.705 439.008 24.7623 444 38.879 444L184.829 444C198.945 444 207.003 439.002 211.279 434.815C220.469 425.81 222.151 416.655 222.151 401.876L222.151 153.801L222.581 153.801C222.694 153.801 222.807 153.783 222.915 153.759C223.213 153.688 223.475 153.515 223.666 153.288C223.678 153.276 223.69 153.258 223.702 153.246C223.785 153.139 223.857 153.014 223.905 152.883C223.911 152.859 223.917 152.841 223.922 152.823C223.97 152.686 224 152.543 224 152.388L224 104.735C224 104.586 223.97 104.437 223.922 104.299Z" fill="#8B849D"/>
</svg>
