<svg width="224" height="444" viewBox="0 0 224 444" fill="none" xmlns="http://www.w3.org/2000/svg">
<path d="M223.923 104.299C223.917 104.281 223.911 104.258 223.905 104.24C223.857 104.109 223.785 103.989 223.702 103.876C223.69 103.858 223.678 103.846 223.666 103.834C223.475 103.602 223.213 103.435 222.915 103.363C222.807 103.339 222.694 103.315 222.581 103.315L222.151 103.315L222.151 42.1301C222.151 27.3452 220.469 18.1963 211.279 9.1906C207.003 4.99787 198.952 -4.34822e-06 184.829 -4.03956e-06L38.8791 -8.49727e-07C24.7744 -5.41458e-07 16.7111 4.99788 12.435 9.19061C3.25048 18.1904 1.56864 27.3452 1.56864 42.1301L1.56864 60.565L1.02592 60.565C0.942428 60.565 0.864896 60.5948 0.787365 60.6127L0.787365 60.5948C0.757545 60.6008 0.739653 60.6187 0.709833 60.6246C0.656158 60.6425 0.608446 60.6664 0.554771 60.6902C0.495131 60.72 0.441456 60.7618 0.38778 60.8035C0.346032 60.8334 0.304285 60.8691 0.268501 60.9049C0.214826 60.9646 0.179042 61.0302 0.137294 61.0958C0.119402 61.1316 0.0895827 61.1673 0.0776548 61.2091C0.0299432 61.3224 0.000123413 61.4477 0.000123416 61.5789L0.000123742 76.483C0.000123745 76.6143 0.0299435 76.7395 0.0776551 76.8528C0.089583 76.8946 0.119403 76.9244 0.137295 76.9661C0.173078 77.0317 0.214826 77.0973 0.268502 77.157C0.304285 77.1928 0.340069 77.2285 0.387781 77.2584C0.441456 77.3001 0.489168 77.3359 0.554771 77.3717C0.602483 77.3955 0.656158 77.4194 0.709834 77.4373C0.73369 77.4432 0.757545 77.4611 0.787365 77.4671L0.787365 77.4492C0.864897 77.4671 0.942428 77.4969 1.02592 77.4969L1.56864 77.4969L1.56864 92.1745L1.02592 92.1745C0.942428 92.1745 0.864897 92.2043 0.787365 92.2222L0.787365 92.2043C0.757546 92.2103 0.739654 92.2281 0.709834 92.2341C0.656159 92.252 0.608447 92.2758 0.554771 92.2997C0.495132 92.3295 0.441456 92.3713 0.387781 92.413C0.346033 92.4488 0.304286 92.4786 0.268502 92.5144C0.214826 92.5741 0.179043 92.6397 0.137295 92.7053C0.119403 92.7411 0.0895833 92.7768 0.0776555 92.8186C0.0299439 92.9319 0.000124104 93.0571 0.000124107 93.1884L0.000124763 123.205C0.000124766 123.337 0.0299445 123.456 0.0776561 123.575C0.089584 123.617 0.119404 123.647 0.137296 123.689C0.173079 123.76 0.214827 123.826 0.268503 123.879C0.304286 123.921 0.34007 123.951 0.387782 123.981C0.441457 124.028 0.489169 124.058 0.554772 124.094C0.602484 124.124 0.656159 124.142 0.709835 124.16C0.733691 124.172 0.757546 124.184 0.781402 124.19L0.781402 124.172C0.858934 124.19 0.936465 124.219 1.01996 124.219L1.56268 124.219L1.56268 132.7L1.02592 132.7C0.942429 132.7 0.864898 132.73 0.787366 132.748L0.787366 132.73C0.757547 132.736 0.739655 132.754 0.709835 132.76C0.656159 132.778 0.608448 132.802 0.554772 132.825C0.495133 132.855 0.441457 132.897 0.387782 132.939C0.346034 132.975 0.304286 133.004 0.268503 133.04C0.214827 133.1 0.179043 133.165 0.137296 133.231C0.119404 133.267 0.0895842 133.303 0.0776563 133.344C0.0299447 133.458 0.00012499 133.583 0.000124993 133.714L0.000125649 163.731C0.000125652 163.862 0.0299454 163.982 0.077657 164.101C0.0895849 164.143 0.119405 164.173 0.137297 164.214C0.17308 164.286 0.214828 164.351 0.268503 164.405C0.304287 164.447 0.340071 164.477 0.387782 164.507C0.441458 164.554 0.48917 164.584 0.554773 164.62C0.602485 164.65 0.65616 164.668 0.709836 164.685C0.733691 164.697 0.757547 164.709 0.781403 164.715L0.781403 164.697C0.858934 164.715 0.936466 164.745 1.01996 164.745L1.56268 164.745L1.56269 401.876C1.56269 416.661 3.24452 425.81 12.429 434.815C16.7052 439.008 24.7625 444 38.8791 444L184.829 444C198.946 444 207.003 439.002 211.279 434.815C220.469 425.81 222.151 416.655 222.151 401.876L222.151 153.801L222.581 153.801C222.694 153.801 222.807 153.783 222.915 153.759C223.213 153.688 223.475 153.515 223.666 153.288C223.678 153.276 223.69 153.258 223.702 153.246C223.785 153.139 223.857 153.014 223.905 152.883C223.911 152.859 223.917 152.841 223.923 152.823C223.97 152.686 224 152.543 224 152.388L224 104.735C224 104.586 223.97 104.437 223.923 104.299Z" fill="#7CA5CF"/>
</svg>
