<svg width="46" height="9" viewBox="0 0 46 9" fill="none" xmlns="http://www.w3.org/2000/svg">
<path fill-rule="evenodd" clip-rule="evenodd" d="M32.8853 7.13774C34.2933 8.53789 36.5678 8.53789 37.9758 7.13774C39.3465 5.69532 39.3465 3.4318 37.9758 1.98938C37.3025 1.31112 36.3863 0.929665 35.4306 0.929665C34.4748 0.929665 33.5587 1.31112 32.8853 1.98938C31.5204 3.43412 31.5204 5.693 32.8853 7.13774ZM6.808 7.16006C7.40182 6.54009 7.71545 5.70375 7.6757 4.84619C7.67577 4.67162 7.66028 4.49739 7.62942 4.32557H4.26275V5.15856H6.77329C6.75615 5.68323 6.55083 6.18423 6.19483 6.57002C5.40185 7.33654 4.2256 7.55073 3.21333 7.11292C2.20106 6.67512 1.55159 5.6713 1.56709 4.56853C1.5419 3.83875 1.81513 3.13022 2.32377 2.6063C2.8324 2.08238 3.53255 1.7883 4.26275 1.79188C4.98917 1.75219 5.69196 2.05645 6.16012 2.61331L6.77329 2.00013C6.4771 1.65948 6.10442 1.39385 5.68578 1.22499C5.23612 1.03255 4.75185 0.934124 4.26275 0.935753C3.30316 0.914368 2.37756 1.29131 1.70592 1.97699C0.672241 3.01745 0.362993 4.57617 0.921163 5.93245C1.47933 7.28873 2.79615 8.17825 4.26275 8.18973C5.21893 8.22377 6.14444 7.84937 6.808 7.16006ZM9.85073 1.95467H12.9745V1.09854H8.92518V8.04014H12.9745V7.18401H9.85073V4.98584H12.6968V4.15284H9.85073V1.95467ZM16.7692 8.04014H15.8784V1.95467H13.9347V1.09854H18.7591V1.95467H16.7692V8.04014ZM22.1605 1.09854V8.04014H23.0514V1.09854H22.1605ZM27.0081 8.04014H26.1173V1.95467H24.1736V1.09854H28.9402V1.95467H27.0081V8.04014ZM33.5448 6.55927C34.5875 7.59769 36.2736 7.59769 37.3164 6.55927C38.3405 5.4303 38.3405 3.70838 37.3164 2.57941C36.2736 1.54099 34.5875 1.54099 33.5448 2.57941C32.5207 3.70838 32.5207 5.4303 33.5448 6.55927ZM40.255 1.09854V8.04014H41.1574V2.38273L44.686 8.04014H45.6116V1.09854H44.7207V6.50142L41.3425 1.09854H40.255Z" fill="white"/>
<path d="M37.9758 7.13774L38.0464 7.20867L38.0483 7.20662L37.9758 7.13774ZM32.8853 7.13774L32.8126 7.20644L32.8148 7.20864L32.8853 7.13774ZM37.9758 1.98938L38.0483 1.92048L38.0468 1.91893L37.9758 1.98938ZM32.8853 1.98938L32.8143 1.9189L32.8126 1.92071L32.8853 1.98938ZM7.6757 4.84619L7.57559 4.84615L7.57581 4.85082L7.6757 4.84619ZM6.808 7.16006L6.88004 7.22941L6.88022 7.22923L6.808 7.16006ZM7.62942 4.32557L7.72785 4.30789L7.71306 4.22557H7.62942V4.32557ZM4.26275 4.32557V4.22557H4.16275V4.32557H4.26275ZM4.26275 5.15856H4.16275V5.25856H4.26275V5.15856ZM6.77329 5.15856L6.87324 5.16183L6.87661 5.05856H6.77329V5.15856ZM6.19483 6.57002L6.26444 6.64204L6.26832 6.63784L6.19483 6.57002ZM3.21333 7.11292L3.17363 7.20471L3.21333 7.11292ZM1.56709 4.56853L1.6672 4.56993L1.66703 4.56508L1.56709 4.56853ZM4.26275 1.79188L4.26225 1.89206L4.2682 1.89174L4.26275 1.79188ZM6.16012 2.61331L6.08357 2.67766L6.15373 2.76111L6.23083 2.68402L6.16012 2.61331ZM6.77329 2.00013L6.844 2.07084L6.90995 2.0049L6.84876 1.93452L6.77329 2.00013ZM5.68578 1.22499L5.64642 1.31694L5.64837 1.31773L5.68578 1.22499ZM4.26275 0.935753L4.26052 1.03576L4.26308 1.03575L4.26275 0.935753ZM1.70592 1.97699L1.77686 2.04748L1.77736 2.04697L1.70592 1.97699ZM0.921163 5.93245L0.828688 5.97051L0.921163 5.93245ZM4.26275 8.18973L4.26631 8.08976L4.26353 8.08973L4.26275 8.18973ZM12.9745 1.95467V2.05467H13.0745V1.95467H12.9745ZM9.85073 1.95467V1.85467H9.75073V1.95467H9.85073ZM12.9745 1.09854H13.0745V0.998537H12.9745V1.09854ZM8.92518 1.09854V0.998537H8.82518V1.09854H8.92518ZM8.92518 8.04014H8.82518V8.14014H8.92518V8.04014ZM12.9745 8.04014V8.14014H13.0745V8.04014H12.9745ZM12.9745 7.18401H13.0745V7.08401H12.9745V7.18401ZM9.85073 7.18401H9.75073V7.28401H9.85073V7.18401ZM9.85073 4.98584V4.88584H9.75073V4.98584H9.85073ZM12.6968 4.98584V5.08584H12.7968V4.98584H12.6968ZM12.6968 4.15284H12.7968V4.05284H12.6968V4.15284ZM9.85073 4.15284H9.75073V4.25284H9.85073V4.15284ZM15.8784 8.04014H15.7784V8.14014H15.8784V8.04014ZM16.7692 8.04014V8.14014H16.8692V8.04014H16.7692ZM15.8784 1.95467H15.9784V1.85467H15.8784V1.95467ZM13.9347 1.95467H13.8347V2.05467H13.9347V1.95467ZM13.9347 1.09854V0.998537H13.8347V1.09854H13.9347ZM18.7591 1.09854H18.8591V0.998537H18.7591V1.09854ZM18.7591 1.95467V2.05467H18.8591V1.95467H18.7591ZM16.7692 1.95467V1.85467H16.6692V1.95467H16.7692ZM22.1605 8.04014H22.0605V8.14014H22.1605V8.04014ZM22.1605 1.09854V0.998537H22.0605V1.09854H22.1605ZM23.0514 8.04014V8.14014H23.1514V8.04014H23.0514ZM23.0514 1.09854H23.1514V0.998537H23.0514V1.09854ZM26.1173 8.04014H26.0173V8.14014H26.1173V8.04014ZM27.0081 8.04014V8.14014H27.1081V8.04014H27.0081ZM26.1173 1.95467H26.2173V1.85467H26.1173V1.95467ZM24.1736 1.95467H24.0736V2.05467H24.1736V1.95467ZM24.1736 1.09854V0.998537H24.0736V1.09854H24.1736ZM28.9402 1.09854H29.0402V0.998537H28.9402V1.09854ZM28.9402 1.95467V2.05467H29.0402V1.95467H28.9402ZM27.0081 1.95467V1.85467H26.9081V1.95467H27.0081ZM37.3164 6.55927L37.387 6.63022L37.3904 6.62646L37.3164 6.55927ZM33.5448 6.55927L33.4706 6.62654L33.4742 6.63013L33.5448 6.55927ZM37.3164 2.57941L37.3905 2.51214L37.3869 2.50856L37.3164 2.57941ZM33.5448 2.57941L33.4741 2.50846L33.4707 2.51223L33.5448 2.57941ZM40.255 8.04014H40.155V8.14014H40.255V8.04014ZM40.255 1.09854V0.998537H40.155V1.09854H40.255ZM41.1574 8.04014V8.14014H41.2574V8.04014H41.1574ZM41.1574 2.38273L41.2422 2.32981L41.0574 2.03345V2.38273H41.1574ZM44.686 8.04014L44.6012 8.09307L44.6306 8.14014H44.686V8.04014ZM45.6116 8.04014V8.14014H45.7116V8.04014H45.6116ZM45.6116 1.09854H45.7116V0.998537H45.6116V1.09854ZM44.7207 1.09854V0.998537H44.6208V1.09854H44.7207ZM44.7207 6.50142L44.636 6.55444L44.8207 6.84997V6.50142H44.7207ZM41.3425 1.09854L41.4273 1.04552L41.3979 0.998537H41.3425V1.09854ZM37.9053 7.06683C36.5363 8.42819 34.3248 8.42819 32.9558 7.06683L32.8148 7.20864C34.2618 8.64759 36.5993 8.64759 38.0463 7.20864L37.9053 7.06683ZM37.9033 2.05826C39.2374 3.46208 39.2374 5.66503 37.9033 7.06885L38.0483 7.20662C39.4557 5.7256 39.4557 3.40151 38.0483 1.92049L37.9033 2.05826ZM35.4306 1.02966C36.3596 1.02966 37.2503 1.40049 37.9049 2.05983L38.0468 1.91893C37.3547 1.22176 36.4129 0.829665 35.4306 0.829665V1.02966ZM32.9563 2.05983C33.6108 1.40049 34.5015 1.02966 35.4306 1.02966V0.829665C34.4482 0.829665 33.5065 1.22176 32.8144 1.91893L32.9563 2.05983ZM32.958 7.06906C31.6296 5.66286 31.6296 3.46425 32.958 2.05805L32.8126 1.92071C31.4113 3.40399 31.4113 5.72313 32.8126 7.20641L32.958 7.06906ZM7.57581 4.85082C7.61429 5.68102 7.31066 6.49069 6.73578 7.09089L6.88022 7.22923C7.49298 6.58949 7.81661 5.72647 7.77559 4.84156L7.57581 4.85082ZM7.531 4.34325C7.56081 4.50922 7.57577 4.67752 7.5757 4.84615L7.7757 4.84623C7.77577 4.66572 7.75976 4.48556 7.72785 4.30789L7.531 4.34325ZM4.26275 4.42557H7.62942V4.22557H4.26275V4.42557ZM4.36275 5.15856V4.32557H4.16275V5.15856H4.36275ZM6.77329 5.05856H4.26275V5.25856H6.77329V5.05856ZM6.26832 6.63784C6.6406 6.2344 6.85531 5.71049 6.87324 5.16183L6.67335 5.1553C6.65699 5.65597 6.46105 6.13406 6.12134 6.50221L6.26832 6.63784ZM3.17363 7.20471C4.22298 7.65855 5.44231 7.43652 6.26433 6.64192L6.12533 6.49812C5.3614 7.23657 4.22822 7.44291 3.25303 7.02114L3.17363 7.20471ZM1.4671 4.56712C1.45103 5.71029 2.12429 6.75087 3.17363 7.20471L3.25303 7.02114C2.27783 6.59937 1.65215 5.63232 1.66708 4.56993L1.4671 4.56712ZM2.25202 2.53664C1.72443 3.08008 1.44102 3.81501 1.46715 4.57198L1.66703 4.56508C1.64278 3.86249 1.90583 3.18035 2.39551 2.67595L2.25202 2.53664ZM4.26324 1.69189C3.50583 1.68817 2.7796 1.9932 2.25202 2.53664L2.39551 2.67595C2.8852 2.17155 3.55926 1.88843 4.26226 1.89188L4.26324 1.69189ZM6.23666 2.54896C5.74827 1.96803 5.01511 1.65062 4.25729 1.69203L4.2682 1.89174C4.96323 1.85376 5.63565 2.14487 6.08357 2.67766L6.23666 2.54896ZM6.70258 1.92942L6.08941 2.5426L6.23083 2.68402L6.844 2.07084L6.70258 1.92942ZM5.64837 1.31773C6.05236 1.48068 6.412 1.73702 6.69783 2.06575L6.84876 1.93452C6.5422 1.58195 6.15647 1.30701 5.72318 1.13225L5.64837 1.31773ZM4.26308 1.03575C4.73854 1.03417 5.20931 1.12985 5.64643 1.31692L5.72512 1.13305C5.26292 0.935252 4.76515 0.834079 4.26241 0.835754L4.26308 1.03575ZM1.77736 2.04697C2.42965 1.38104 3.32858 1.01496 4.26052 1.03573L4.26497 0.835778C3.27774 0.813777 2.32547 1.20158 1.63448 1.90702L1.77736 2.04697ZM1.01364 5.89439C0.470784 4.57533 0.771546 3.05938 1.77686 2.04747L1.63498 1.90651C0.572936 2.97552 0.255202 4.57701 0.828688 5.97051L1.01364 5.89439ZM4.26353 8.08973C2.83717 8.07857 1.55649 7.21346 1.01364 5.89439L0.828688 5.97051C1.40217 7.364 2.75512 8.27794 4.26196 8.28973L4.26353 8.08973ZM6.73596 7.09071C6.09211 7.75954 5.19409 8.12283 4.2663 8.08979L4.25919 8.28967C5.24378 8.32472 6.19677 7.93919 6.88004 7.22941L6.73596 7.09071ZM12.9745 1.85467H9.85073V2.05467H12.9745V1.85467ZM12.8745 1.09854V1.95467H13.0745V1.09854H12.8745ZM8.92518 1.19854H12.9745V0.998537H8.92518V1.19854ZM9.02518 8.04014V1.09854H8.82518V8.04014H9.02518ZM12.9745 7.94014H8.92518V8.14014H12.9745V7.94014ZM12.8745 7.18401V8.04014H13.0745V7.18401H12.8745ZM9.85073 7.28401H12.9745V7.08401H9.85073V7.28401ZM9.75073 4.98584V7.18401H9.95073V4.98584H9.75073ZM12.6968 4.88584H9.85073V5.08584H12.6968V4.88584ZM12.5968 4.15284V4.98584H12.7968V4.15284H12.5968ZM9.85073 4.25284H12.6968V4.05284H9.85073V4.25284ZM9.75073 1.95467V4.15284H9.95073V1.95467H9.75073ZM15.8784 8.14014H16.7692V7.94014H15.8784V8.14014ZM15.7784 1.95467V8.04014H15.9784V1.95467H15.7784ZM13.9347 2.05467H15.8784V1.85467H13.9347V2.05467ZM13.8347 1.09854V1.95467H14.0347V1.09854H13.8347ZM18.7591 0.998537H13.9347V1.19854H18.7591V0.998537ZM18.8591 1.95467V1.09854H18.6591V1.95467H18.8591ZM16.7692 2.05467H18.7591V1.85467H16.7692V2.05467ZM16.8692 8.04014V1.95467H16.6692V8.04014H16.8692ZM22.2605 8.04014V1.09854H22.0605V8.04014H22.2605ZM23.0514 7.94014H22.1605V8.14014H23.0514V7.94014ZM22.9514 1.09854V8.04014H23.1514V1.09854H22.9514ZM22.1605 1.19854H23.0514V0.998537H22.1605V1.19854ZM26.1173 8.14014H27.0081V7.94014H26.1173V8.14014ZM26.0173 1.95467V8.04014H26.2173V1.95467H26.0173ZM24.1736 2.05467H26.1173V1.85467H24.1736V2.05467ZM24.0736 1.09854V1.95467H24.2736V1.09854H24.0736ZM28.9402 0.998537H24.1736V1.19854H28.9402V0.998537ZM29.0402 1.95467V1.09854H28.8402V1.95467H29.0402ZM27.0081 2.05467H28.9402V1.85467H27.0081V2.05467ZM27.1081 8.04014V1.95467H26.9081V8.04014H27.1081ZM37.2458 6.48841C36.2421 7.48798 34.6191 7.48798 33.6153 6.48841L33.4742 6.63013C34.556 7.70741 36.3051 7.70741 37.3869 6.63013L37.2458 6.48841ZM37.2423 2.6466C38.2318 3.73745 38.2318 5.40123 37.2423 6.49208L37.3904 6.62646C38.4491 5.45937 38.4491 3.67931 37.3904 2.51223L37.2423 2.6466ZM33.6153 2.65027C34.6191 1.6507 36.2421 1.6507 37.2458 2.65027L37.3869 2.50856C36.3051 1.43128 34.556 1.43128 33.4742 2.50856L33.6153 2.65027ZM33.6188 6.49208C32.6293 5.40123 32.6293 3.73745 33.6188 2.6466L33.4707 2.51223C32.412 3.67931 32.412 5.45937 33.4707 6.62646L33.6188 6.49208ZM40.355 8.04014V1.09854H40.155V8.04014H40.355ZM41.1574 7.94014H40.255V8.14014H41.1574V7.94014ZM41.0574 2.38273V8.04014H41.2574V2.38273H41.0574ZM44.7709 7.98722L41.2422 2.32981L41.0725 2.43566L44.6012 8.09307L44.7709 7.98722ZM45.6116 7.94014H44.686V8.14014H45.6116V7.94014ZM45.5116 1.09854V8.04014H45.7116V1.09854H45.5116ZM44.7207 1.19854H45.6116V0.998537H44.7207V1.19854ZM44.8207 6.50142V1.09854H44.6208V6.50142H44.8207ZM41.2577 1.15155L44.636 6.55444L44.8055 6.4484L41.4273 1.04552L41.2577 1.15155ZM40.255 1.19854H41.3425V0.998537H40.255V1.19854Z" fill="white"/>
</svg>
