<svg width="99" height="21" viewBox="0 0 99 21" fill="none" xmlns="http://www.w3.org/2000/svg">
<path fill-rule="evenodd" clip-rule="evenodd" d="M8.04592 7.67891V9.76139H13.0439C12.9655 10.7422 12.5578 11.6678 11.8869 12.3876C10.8758 13.4176 9.47652 13.9722 8.03435 13.9148C4.96736 13.9148 2.48107 11.4285 2.48107 8.3615C2.48107 5.2945 4.96736 2.80822 8.03435 2.80822C9.44326 2.78524 10.8038 3.32195 11.8175 4.30066L13.2868 2.83135C11.9042 1.4313 10.0135 0.650827 8.04592 0.667887C5.24494 0.558879 2.60879 1.99104 1.17588 4.40022C-0.257031 6.80941 -0.257031 9.80947 1.17588 12.2187C2.60879 14.6278 5.24494 16.06 8.04592 15.951C10.0495 16.0415 11.9942 15.2611 13.3794 13.8107C14.5915 12.4789 15.2386 10.7283 15.1842 8.9284C15.1879 8.48991 15.1492 8.05208 15.0685 7.62106L8.04592 7.67891ZM20.8763 6.16332C18.1623 6.1697 15.9667 8.37392 15.9709 11.088C15.9752 13.802 18.1777 15.9994 20.8917 15.9972C23.6058 15.9951 25.8048 13.7943 25.8048 11.0803C25.8239 9.76644 25.3088 8.50114 24.3775 7.5742C23.4462 6.64726 22.1785 6.13809 20.8647 6.16332H20.8763ZM26.7536 11.0956C26.7451 8.3831 28.9349 6.17608 31.6474 6.16332C32.9611 6.13809 34.2288 6.64726 35.1601 7.5742C36.0914 8.50114 36.6065 9.76644 36.5875 11.0803C36.5875 13.7928 34.3907 15.993 31.6782 15.9972C28.9656 16.0014 26.7621 13.8082 26.7536 11.0956ZM28.7458 12.3743C29.2741 13.4801 30.4248 14.1507 31.6474 14.0652C32.4148 14.0474 33.1424 13.7204 33.6653 13.1584C34.1881 12.5963 34.4617 11.847 34.424 11.0803C34.4211 9.8547 33.6692 8.75548 32.528 8.30838C31.3869 7.86128 30.0884 8.15718 29.2537 9.05455C28.4189 9.95192 28.2175 11.2684 28.7458 12.3743ZM17.967 12.3831C18.4991 13.4883 19.6531 14.1555 20.8763 14.0652H20.8648C21.6321 14.0474 22.3598 13.7204 22.8826 13.1584C23.4054 12.5963 23.679 11.847 23.6414 11.0803C23.6381 9.85372 22.8847 8.75403 21.7421 8.30793C20.5995 7.86182 19.3004 8.16011 18.4668 9.05993C17.6332 9.95976 17.435 11.2779 17.967 12.3831ZM56.2554 6.16333C58.1735 6.23396 59.8489 7.48132 60.4666 9.29862L60.7095 9.81924L54.1266 12.538C54.5392 13.4777 55.4844 14.0696 56.5099 14.0305C57.5 14.033 58.4185 13.5144 58.9279 12.6653L60.6054 13.8222C59.6922 15.1891 58.1537 16.0061 56.5099 15.9973C55.2032 16.0164 53.9449 15.5034 53.0241 14.5761C52.1033 13.6487 51.5992 12.3868 51.6276 11.0803C51.5477 9.80365 51.9997 8.55085 52.8764 7.61937C53.7531 6.68789 54.9762 6.16083 56.2554 6.16333ZM53.7564 10.9415C53.709 10.2186 53.9546 9.50702 54.4378 8.96725C54.921 8.42748 55.6011 8.10491 56.3248 8.07226C57.0877 8.02199 57.8069 8.4317 58.1528 9.1135L53.7564 10.9415ZM50.5748 15.708H48.4114V1.24635H50.5748V15.708ZM44.8712 7.26241H44.7902C44.1307 6.52507 43.1879 6.10418 42.1986 6.10547C39.5726 6.23282 37.5088 8.39907 37.5088 11.0282C37.5088 13.6574 39.5726 15.8236 42.1986 15.951C43.1911 15.9677 44.14 15.5441 44.7902 14.7941H44.8596V15.4998C44.8596 17.3856 43.8531 18.3921 42.2333 18.3921C41.13 18.3663 40.1517 17.676 39.7575 16.6451L37.8717 17.4319C38.5979 19.1983 40.3235 20.3472 42.2333 20.3358C44.767 20.3358 46.8611 18.8433 46.8611 15.2105V6.45255H44.8712V7.26241ZM42.3917 14.0649L42.3953 14.0652H42.3837L42.3917 14.0649ZM44.3412 13.1371C43.8447 13.6989 43.1406 14.0339 42.3917 14.0649C40.8465 13.9268 39.6619 12.632 39.6619 11.0803C39.6619 9.52734 40.8484 8.23173 42.3953 8.0954C43.1428 8.13376 43.8432 8.47229 44.3376 9.03425C44.8321 9.5962 45.0787 10.334 45.0215 11.0803C45.0853 11.83 44.8395 12.5732 44.3412 13.1371ZM70.6013 1.24635H65.4298V15.708H67.5933V10.2242H70.6129C72.2936 10.3449 73.9009 9.5167 74.778 8.07801C75.6552 6.63932 75.6552 4.83118 74.778 3.39249C73.9009 1.9538 72.2936 1.1256 70.6129 1.24635H70.6013ZM67.5818 8.18796H70.6014L70.6476 8.22267C72.0182 8.22267 73.1293 7.11161 73.1293 5.74105C73.1293 4.37048 72.0182 3.25942 70.6476 3.25942H67.5818V8.18796ZM83.9408 6.10547C82.3312 6.00925 80.8179 6.87724 80.0882 8.31521L82.0087 9.11349C82.3956 8.40044 83.167 7.983 83.9755 8.04912C84.5303 7.98432 85.0879 8.14511 85.5229 8.49536C85.958 8.84561 86.2342 9.35596 86.2894 9.91178V10.0622C85.5945 9.69427 84.8196 9.50353 84.0334 9.50685C81.9624 9.50685 79.8684 10.6638 79.8684 12.7578C79.9097 13.6599 80.3141 14.5069 80.9896 15.1062C81.6651 15.7054 82.5543 16.006 83.4549 15.9394C84.5647 16.0191 85.6294 15.4867 86.2315 14.5511H86.301V15.708H88.3834V10.1432C88.3834 7.60948 86.4629 6.14017 83.9987 6.14017L83.9408 6.10547ZM81.9856 12.8041C81.9856 13.6718 82.969 14.0305 83.6747 14.0305L83.7326 14.0652C85.0359 14.0334 86.1167 13.0464 86.2663 11.7513C85.666 11.4163 84.9867 11.2485 84.2995 11.2654C83.212 11.2654 81.9856 11.6472 81.9856 12.8041ZM95.9729 6.45255L93.4971 12.7231H93.4277L90.8593 6.45255H88.5454L92.398 15.2221L90.1998 20.0928H92.4558L98.3793 6.45255H95.9729ZM78.6883 15.708H76.5248V1.24635H78.6883V15.708Z" fill="white"/>
</svg>
