<svg width="22" height="26" viewBox="0 0 22 26" fill="none" xmlns="http://www.w3.org/2000/svg">
<path fill-rule="evenodd" clip-rule="evenodd" d="M15.7851 0.0889282C15.8971 1.55156 15.4345 3.00025 14.4956 4.12735C13.5848 5.26029 12.2046 5.91286 10.7509 5.89789C10.6585 4.47737 11.1345 3.07835 12.0741 2.00899C13.0257 0.925136 14.3507 0.239584 15.7851 0.0889282ZM20.3823 8.68303C18.7102 9.71105 17.6812 11.524 17.656 13.4867C17.6583 15.7073 18.9882 17.7112 21.0333 18.5762C20.64 19.854 20.0471 21.0615 19.2766 22.1541C18.2419 23.7019 17.157 25.2141 15.435 25.2421C14.6161 25.261 14.0632 25.0255 13.4872 24.7801C12.8863 24.5242 12.2602 24.2574 11.2805 24.2574C10.2414 24.2574 9.5872 24.5327 8.95629 24.7983C8.41108 25.0277 7.88323 25.2499 7.13932 25.2807C5.49942 25.3415 4.24614 23.6287 3.17378 22.0953C1.03043 18.964 -0.638553 13.2706 1.59896 9.39672C2.64966 7.50864 4.61421 6.31053 6.77383 6.24076C7.70392 6.22162 8.59639 6.5801 9.37885 6.89439C9.97725 7.13475 10.5113 7.34926 10.9486 7.34926C11.3331 7.34926 11.8522 7.14322 12.4572 6.90309C13.4103 6.52484 14.5765 6.062 15.7648 6.18674C17.6114 6.24452 19.3227 7.16964 20.3823 8.68303Z" fill="white"/>
</svg>
