<svg width="490" height="284" viewBox="0 0 490 284" fill="none" xmlns="http://www.w3.org/2000/svg">
<path d="M12.3225 209.07L16.7229 206.519L12.3129 209.065C2.31185 203.291 0.14525 198.114 0.0926849 194.786C-0.0363394 187.45 5.17714 183.137 16.1828 176.783L304.722 10.2095C315.723 3.85864 323.199 0.846124 335.907 0.920613C341.666 0.953719 350.644 2.2045 360.645 7.97813L477.692 75.5497C487.703 81.3289 489.87 86.5061 489.922 89.8334C490.051 97.1699 484.838 101.483 473.832 107.837L185.293 274.41C174.292 280.761 166.821 283.771 154.108 283.699C148.349 283.666 139.376 282.418 129.37 276.642L12.3225 209.07Z" fill="#54575A"/>
</svg>
