<svg width="212" height="227" viewBox="0 0 212 227" fill="none" xmlns="http://www.w3.org/2000/svg">
<path d="M32.885 435.193L32.873 429.694L32.873 435.193C20.4024 435.193 13.4604 430.953 9.83431 427.392C1.83069 419.549 0.423196 411.641 0.423196 397.918L0.423188 38.1301C0.423188 24.4128 1.83068 16.4985 9.8343 8.65572C13.4604 5.10114 20.4084 0.854736 32.879 0.854736L178.829 0.854732C191.311 0.854732 198.253 5.09517 201.879 8.65571C209.883 16.4984 211.291 24.4068 211.291 38.1301L211.291 397.918C211.291 411.635 209.883 419.543 201.879 427.392C198.253 430.947 191.311 435.193 178.835 435.193L32.885 435.193Z" fill="#54575A"/>
</svg>
