<svg width="212" height="436" viewBox="0 0 212 436" fill="none" xmlns="http://www.w3.org/2000/svg">
<path d="M32.8851 435.193L32.8731 429.694L32.8731 435.193C20.4025 435.193 13.4605 430.953 9.83441 427.392C1.83079 419.549 0.423301 411.641 0.423301 397.918L0.423293 38.1301C0.423293 24.4128 1.83079 16.4985 9.83441 8.65572C13.4605 5.10114 20.4085 0.854736 32.8791 0.854736L178.829 0.854732C191.311 0.854732 198.253 5.09517 201.88 8.65571C209.883 16.4984 211.291 24.4068 211.291 38.1301L211.291 397.918C211.291 411.635 209.883 419.543 201.88 427.392C198.253 430.947 191.311 435.193 178.835 435.193L32.8851 435.193Z" fill="#54575A"/>
</svg>
